<svg width="250" height="103" fill="none" xmlns="http://www.w3.org/2000/svg"><path d="M179.4 40.08h-.8c-4.81 0-9.56 1.25-14.59 2.57l-1.49.38.06 6.26v22.33h4.86V53.23l.14-7.16.69-.56a11.26 11.26 0 017.56-2.35c5.37 0 9.12 4.47 9.12 10.86v17.6h4.86V53c0-10.87-6.53-12.76-10.41-12.92zm39.36 3.33v-3.33h-7.93v-8.85H206V61c0 4.14.71 6.8 2.27 8.42a8.37 8.37 0 006.25 2.32 19.19 19.19 0 004.29-.44v-2.93h-1.47c-6.46 0-6.46-6.31-6.46-8.38V43.41h7.88zm-74.39-3.33a27.999 27.999 0 00-8.88 1.44v2.06a22.5 22.5 0 017.41-1.33c.558 0 1.116.036 1.67.11 7.14.71 7.7 6 7.7 7.59v2.55l-2-.06h-1c-1.43 0-3.12.09-4.76.26-8.59.84-12.94 3.94-12.94 9.2 0 6.46 5.32 9.74 15.82 9.74h9.7V52.22c.05-8.28-4.01-12.14-12.72-12.14zm7.9 30h-1.93a47.526 47.526 0 01-6.24-.33c-2-.29-8-1.17-8-7.38 0-2.29 1-6.36 8-7.74a32.88 32.88 0 016.33-.52h1.93l-.09 15.97zm-52.27-30a12.943 12.943 0 00-4.85.84c-3.7 1.57-5.48 4.64-5.45 9.39l.14 21.36h5.1l-.12-18.1c0-4.05-.07-10.18 7.58-10.23.69 0 1.44 0 2.26.12v-2.84a21.253 21.253 0 00-4.66-.54zm-68.34 16.2c0 9.58 6.26 15.53 16.33 15.53a26.91 26.91 0 006.36-.81v-2.68a21.995 21.995 0 01-4.64.46C42.2 68.78 37 63.49 37 55.93a12.938 12.938 0 013.55-9.38A12.61 12.61 0 0149.71 43c1.561-.018 3.119.15 4.64.5v-2.86a25.674 25.674 0 00-4.89-.5c-10.65 0-17.8 6.49-17.8 16.14zm87.83-1.85C115.38 53 112 51.59 112 47.87c0-3.35 2.71-5.51 6.92-5.51a15.38 15.38 0 015.44 1.08v-2.06a15.662 15.662 0 00-6.38-1.3c-6.59 0-10.68 3.36-10.68 8.82-.12 4.29 4.5 6.72 8.4 8 4.51 1.52 7.12 3.12 7.12 6.83 0 3.55-2.85 5.68-7.61 5.68a24.549 24.549 0 01-7.59-1.51v2.7a25.98 25.98 0 007.54 1.22c7.8 0 12.46-3.3 12.46-8.81-.08-4.01-2.51-6.63-8.13-8.58zM72.43 40.08h-.9C61.55 40.53 57 48.89 57 56.47c0 9 5.3 14.62 14.43 15.29h1.91c2.96.01 5.908-.367 8.77-1.12v-2.36c-2.475.57-5.01.842-7.55.81a20.12 20.12 0 01-3.51-.33c-5.69-1.16-9.16-5.05-9.3-10.41v-2h23.9v-1.62c.02-3.42-.93-14.65-13.22-14.65zm8.75 12.31v1.89H61.54l.24-2.14c.48-4.48 3.28-9.8 9.49-10h.6a8.76 8.76 0 016.51 2.54 11.14 11.14 0 012.8 7.71zm119.38-12.31h-5.16v31.54h5.16V40.08zM198 31.23a2.439 2.439 0 00-2.58 2.52 2.6 2.6 0 005.19 0 2.462 2.462 0 00-1.608-2.373A2.458 2.458 0 00198 31.23z" fill="#273D8B"/></svg>