<svg width="13" height="22" fill="none" xmlns="http://www.w3.org/2000/svg"><path fill-rule="evenodd" clip-rule="evenodd" d="M.01 10.52h3.6v9.328a1.094 1.094 0 00.337.838 1.184 1.184 0 00.862.328h2.399c-.018 0 0-10.493 0-10.493h3.599c-.085 0 1.26-3.498 1.2-3.498h-4.8V4.69a.988.988 0 01.292-.882 1.074 1.074 0 01.907-.284c.2 0 2.47.007 2.4 0 .2 0 .182-.017 1.2 0V.75c0-.966-1-.723-1.2-.723H7.208c.509 0-1.68.262-2.4 1.166A3.579 3.579 0 003.61 3.525v3.498H.011c-.028-.028.008 3.498 0 3.498z" fill="#171616"/></svg>