<svg width="28" height="28" fill="none" xmlns="http://www.w3.org/2000/svg"><path fill-rule="evenodd" clip-rule="evenodd" d="M19.65 0H7.369A7.84 7.84 0 000 7.369v12.28a7.84 7.84 0 007.369 7.37h12.28a7.839 7.839 0 007.37-7.37V7.37A7.839 7.839 0 0019.649 0zm4.912 19.65a5.158 5.158 0 01-4.912 4.912H7.369a5.158 5.158 0 01-4.913-4.912V7.369A5.158 5.158 0 017.37 2.456h12.28a5.158 5.158 0 014.913 4.913v12.28zM13.51 6.14a7.369 7.369 0 100 14.738 7.369 7.369 0 000-14.737zm.1 12.27a4.905 4.905 0 110-9.81 4.906 4.906 0 11-.002 9.813l.002-.002zm6.67-13.509a1.842 1.842 0 101.308.54 1.862 1.862 0 00-1.31-.529l.002-.01z" fill="#171616"/></svg>