<svg width="3944" height="677" fill="none" xmlns="http://www.w3.org/2000/svg"><path d="M.5 76.8v-27h165.6l259.2 550.8-29.7 68.4h-117L.5 76.8zM509 408.9h-3.6l-60.3 145.8-77.4-165.6L509 49.8h171V669H509V408.9zM.5 165.9l165.6 352.8V669H.5V165.9z" fill="#6CAC3D"/><path d="M1024.49 384.6c0-15.6-.6-26.7-1.8-33.3-1.2-6.6-4.8-11.4-10.8-14.4-5.4-3-15.601-5.1-30.601-6.3-9-.6-28.5-.9-58.5-.9-28.8 0-55.5 1.2-80.1 3.6l-47.7 2.7V219c56.4-10.8 117.3-16.2 182.7-16.2 50.401 0 89.701 3.6 117.901 10.8 28.8 7.2 50.4 18.6 64.8 34.2 12.6 14.4 20.7 32.7 24.3 54.9 4.2 22.2 6.3 53.1 6.3 92.7V669h-166.5V384.6zM891.289 675.3c-41.4 0-72-11.4-91.8-34.2-19.8-23.4-29.7-58.5-29.7-105.3 0-28.8 2.1-51.9 6.3-69.3 4.2-18 11.4-32.1 21.6-42.3 10.2-10.8 24.3-18.3 42.3-22.5 18-4.8 41.7-7.2 71.1-7.2l75.6 1.8v80.1h-9c-13.8 0-22.8.3-27 .9-12 .6-18.3 6.3-18.9 17.1-.6 3.6-.9 11.1-.9 22.5 0 9 .3 15.9.9 20.7 1.2 4.8 3 8.7 5.4 11.7 3 4.2 7.5 6.6 13.5 7.2 8.4 1.2 17.4 1.8 27 1.8h9v91.8c-13.2 10.2-27.3 16.8-42.3 19.8-14.4 3.6-32.1 5.4-53.1 5.4zM1251.84 210h181.8l309.6 459h-181.8l-309.6-459zm276.3 72l37.8-72h171l-123.3 198.9-85.5-126.9zm-153 179.1l85.5 126.9-43.2 81h-171l128.7-207.9zm1210.45-225c12.6-12 27.3-20.4 44.1-25.2 17.4-5.4 38.7-8.1 63.9-8.1v150.3c-27 0-49.2 1.8-66.6 5.4-16.8 3.6-30.6 9.9-41.4 18.9V236.1zm-204.3-26.1h166.5v459h-166.5V210zm634.43 230.4c0-30.6-.3-51-.9-61.2-.6-14.4-2.4-25.2-5.4-32.4-3-7.8-7.8-12.6-14.4-14.4-7.2-1.8-17.1-2.7-29.7-2.7h-12.6V202.8h12.6c52.2 0 93 4.2 122.4 12.6 29.4 7.8 51.3 21 65.7 39.6 13.2 16.8 21.6 39.3 25.2 67.5 4.2 27.6 6.3 66.9 6.3 117.9 0 47.4-1.5 84.3-4.5 110.7-2.4 25.8-8.7 47.1-18.9 63.9-11.4 18.6-28.5 32.7-51.3 42.3-22.8 9-54.3 14.7-94.5 17.1v-234zm-50.4 235.8c-52.2 0-93-3.9-122.4-11.7-29.4-7.8-51.3-21-65.7-39.6-13.2-16.8-21.9-39-26.1-66.6-3.6-27.6-5.4-66.9-5.4-117.9 0-46.8 1.5-83.4 4.5-109.8 3-26.4 9.6-48.3 19.8-65.7 10.8-19.2 27.6-33.3 50.4-42.3 22.8-9.6 54.3-15.6 94.5-18v235.8c0 30.6.3 50.7.9 60.3.6 14.4 2.4 25.2 5.4 32.4 3 7.2 8.1 11.7 15.3 13.5 6 1.8 15.6 2.7 28.8 2.7h12.6v126.9h-12.6zm871.44-537.3c-1.8 7.2-2.7 17.4-2.7 30.6V210h109.8v126.9h-704.7V210h84.6v-9.9c0-51 3.6-89.7 10.8-116.1 7.2-26.4 20.4-45.6 39.6-57.6 18-11.4 42.9-18.6 74.7-21.6 31.8-3 82.2-4.5 151.2-4.5v115.2c-31.2 0-51.6.3-61.2.9-14.4.6-25.5 2.7-33.3 6.3-7.2 3.6-11.4 9-12.6 16.2-1.8 7.2-2.7 17.4-2.7 30.6V210h177.3v-9.9c0-51 3.6-89.7 10.8-116.1 7.2-26.4 20.4-45.6 39.6-57.6 18-11.4 42.9-18.6 74.7-21.6 31.8-3 82.2-4.5 151.2-4.5v115.2c-31.2 0-51.6.3-61.2.9-14.4.6-25.5 2.7-33.3 6.3-7.2 3.6-11.4 9-12.6 16.2zm-513 234h166.5V669h-166.5V372.9zm343.8 0h166.5V669h-166.5V372.9z" fill="#000"/><path d="M1808.41 49.8h180V669h-180V49.8zm217.8 288.9h21.6c19.2 0 33.3-.6 42.3-1.8 9.6-1.8 17.1-5.4 22.5-10.8 5.4-4.8 8.7-11.7 9.9-20.7 1.8-9.6 2.7-23.7 2.7-42.3 0-18.6-.9-32.4-2.7-41.4-1.2-9.6-4.5-17.1-9.9-22.5-5.4-4.8-12.9-7.8-22.5-9-9.6-1.8-23.7-2.7-42.3-2.7h-21.6V49.8h74.7c44.4 0 80.4 4.5 108 13.5 28.2 8.4 49.5 21.6 63.9 39.6 13.8 16.8 23.1 38.1 27.9 63.9 4.8 25.2 7.2 57.3 7.2 96.3 0 37.2-2.4 68.1-7.2 92.7-4.2 24.6-12.9 45.3-26.1 62.1-15 19.2-36.6 33.9-64.8 44.1-27.6 9.6-63.9 14.4-108.9 14.4h-74.7V338.7z" fill="#6CAC3D"/></svg>