<svg width="23" height="23" fill="none" xmlns="http://www.w3.org/2000/svg"><path d="M11.236 1.38a16.52 16.52 0 00-1.89.119c-1.213.15-2.415.397-3.569.927C3.942 3.27 2.642 4.7 2.264 6.778c-.16.877-.29 1.766-.363 2.661-.142 1.738-.054 3.48.439 5.193.388 1.35 1.103 2.563 2.355 3.35.53.332 1.23.494 1.594.663.103.048.128.077.133.084.006.006.02.018.018.126-.012 1.1 0 3.227 0 3.227l.002.458h.821l.133-.129s2.086-2.007 2.84-2.834c.137-.147.207-.23.222-.239.012-.009-.01-.014.131-.018.99-.02 1.978-.057 2.967-.111 1.303-.072 2.63-.196 3.908-.73 1.112-.465 2.041-1.225 2.604-2.364.575-1.168.882-2.406.997-3.687.19-2.133.124-4.27-.466-6.376-.346-1.234-1.044-2.278-2.113-3.015-1.279-.88-2.722-1.211-4.134-1.421a21.379 21.379 0 00-2.489-.228 18.187 18.187 0 00-.627-.008zm.602.928a19.74 19.74 0 012.379.217c1.362.203 2.647.512 3.748 1.27.893.615 1.45 1.445 1.749 2.503.55 1.97.62 3.988.434 6.049-.106 1.187-.388 2.307-.907 3.362-.458.93-1.173 1.522-2.133 1.922-1.114.466-2.325.59-3.6.66a84.04 84.04 0 01-2.937.11c-.246.005-.487.07-.658.195-.17.126-.248.243-.354.358-.539.59-1.613 1.626-2.199 2.194-.004-.687-.009-1.517 0-2.282a1.125 1.125 0 00-.185-.667 1.209 1.209 0 00-.498-.388c-.519-.24-1.198-.424-1.493-.61-1.03-.646-1.614-1.616-1.96-2.824-.455-1.58-.541-3.206-.406-4.86.071-.86.195-1.72.352-2.574.327-1.798 1.355-2.93 2.99-3.681 1.033-.475 2.136-.708 3.299-.85a15.729 15.729 0 012.379-.104zm.194 2.292c-.38 0-.748.043-1.105.123a.461.461 0 00.205.898c.289-.067.59-.1.9-.1a4.05 4.05 0 014.057 4.055c0 .31-.034.613-.1.904a.46.46 0 10.896.201 4.983 4.983 0 00-4.853-6.08zm-4.59.922a.874.874 0 00-.233.02c-.835.185-1.666.79-1.689 1.872.023.151.022.313.077.45.273.668.51 1.358.852 1.99 1.662 3.073 4.176 5.21 7.38 6.566.383.162.778.196 1.164.034.532-.22.983-.562 1.283-1.053.412-.674.417-1.14-.26-1.638-.444-.327-.88-.663-1.33-.983-.685-.485-1.425-.57-1.935.282-.027.043-.067.079-.1.115-.263.278-.585.347-.926.207-1.296-.534-2.297-1.395-2.9-2.676-.356-.753-.26-1.13.406-1.632.066-.048.129-.1.19-.156.291-.266.368-.582.196-.94A7.355 7.355 0 008.05 5.81c-.178-.17-.38-.275-.607-.288zm4.583.458a3.65 3.65 0 00-.602.05.461.461 0 00-.293.755c.11.128.282.187.447.151a2.8 2.8 0 01.448-.036c1.495 0 2.695 1.2 2.695 2.696 0 .152-.013.303-.036.447a.462.462 0 00.151.448.461.461 0 00.755-.293 3.623 3.623 0 00-3.565-4.217zm-.065 1.38a.463.463 0 00-.404.229.464.464 0 000 .463.46.46 0 00.404.228c.767 0 1.38.613 1.38 1.38a.462.462 0 00.228.405c.144.082.32.082.464 0a.463.463 0 00.228-.405c0-1.265-1.035-2.3-2.3-2.3z" fill="#5C4CBB"/></svg>