<svg width="21" height="21" fill="none" xmlns="http://www.w3.org/2000/svg"><path d="M10.5 21C16.29 21 21 16.29 21 10.5S16.29 0 10.5 0 0 4.71 0 10.5 4.71 21 10.5 21zm0-19.688c5.066 0 9.188 4.122 9.188 9.188 0 5.066-4.122 9.188-9.188 9.188-5.066 0-9.188-4.122-9.188-9.188 0-5.066 4.122-9.188 9.188-9.188z" fill="#2B6BA0"/><path d="M6.91 12.387l1.371-.596-.385.386a.657.657 0 00-.192.463v2.569c0 .588.71.873 1.12.463l1.377-1.377 3.001 1.5a.656.656 0 00.94-.47l1.711-9.415a.657.657 0 00-.885-.729L3.84 9.536a.657.657 0 00-.113 1.165l2.567 1.637a.655.655 0 00.614.049zm7.442-5.554l-1.345 7.398-2.642-1.32a.655.655 0 00-.757.123l-.592.592v-.712l2.631-2.63c.51-.511-.064-1.353-.725-1.067l-4.215 1.83-1.185-.757 8.83-3.457z" fill="#2B6BA0"/></svg>