<svg width="28" height="28" fill="none" xmlns="http://www.w3.org/2000/svg"><path d="M13.51 27.019c7.449 0 13.509-6.06 13.509-13.51C27.019 6.06 20.959 0 13.509 0 6.06 0 0 6.06 0 13.51c0 7.449 6.06 13.509 13.51 13.509zm0-25.33c6.518 0 11.82 5.302 11.82 11.82 0 6.518-5.302 11.82-11.82 11.82-6.519 0-11.821-5.302-11.821-11.82 0-6.518 5.302-11.82 11.82-11.82z" fill="#171616"/><path d="M8.89 15.935l1.764-.767-.495.497a.845.845 0 00-.248.596v3.304c0 .757.915 1.124 1.441.597l1.772-1.772 3.862 1.93a.844.844 0 001.208-.604l2.203-12.114a.846.846 0 00-1.14-.938L4.943 12.267a.845.845 0 00-.146 1.498L8.1 15.873c.236.15.535.174.79.062zm9.575-7.146l-1.73 9.519-3.4-1.699a.843.843 0 00-.974.159l-.761.76v-.914l3.385-3.386c.657-.656-.082-1.739-.933-1.37L8.629 14.21l-1.524-.973 11.36-4.448z" fill="#171616"/></svg>