<svg width="34" height="20" fill="none" xmlns="http://www.w3.org/2000/svg"><path d="M28.124 11.212c-.548-.684-.391-.989 0-1.6.007-.007 4.53-6.189 4.996-8.285l.003-.002c.232-.764 0-1.325-1.12-1.325h-3.705c-.944 0-1.379.482-1.612 1.02 0 0-1.886 4.467-4.555 7.363-.862.836-1.26 1.104-1.73 1.104-.232 0-.592-.268-.592-1.032v-7.13C19.809.41 19.545 0 18.764 0h-5.827c-.591 0-.943.427-.943.825 0 .87 1.334 1.069 1.473 3.513v5.303c0 1.162-.213 1.376-.687 1.376-1.26 0-4.317-4.485-6.129-9.618C6.286.404 5.928.001 4.978.001H1.271C.213.001 0 .483 0 1.022c0 .953 1.26 5.689 5.858 11.946 3.064 4.27 7.38 6.585 11.306 6.585 2.36 0 2.648-.514 2.648-1.398 0-4.081-.213-4.467.969-4.467.547 0 1.49.269 3.694 2.329 2.518 2.442 2.932 3.536 4.341 3.536h3.706c1.056 0 1.591-.514 1.283-1.528-.704-2.133-5.466-6.52-5.68-6.813z" fill="#171616"/></svg>