<svg width="32" height="26" fill="none" xmlns="http://www.w3.org/2000/svg"><path fill-rule="evenodd" clip-rule="evenodd" d="M23.537.355a89.447 89.447 0 00-15.932 0L5.329.56A5.296 5.296 0 00.56 5.068a53.262 53.262 0 000 15.41 5.296 5.296 0 004.769 4.508l2.276.204c5.3.474 10.632.474 15.932 0l2.276-.204a5.296 5.296 0 004.768-4.508c.747-5.11.747-10.3 0-15.41a5.296 5.296 0 00-4.768-4.51L23.537.356zM7.805 2.596a87.199 87.199 0 0115.531 0l2.276.204a3.046 3.046 0 012.743 2.593 51.008 51.008 0 010 14.76 3.046 3.046 0 01-2.743 2.592l-2.276.204a87.191 87.191 0 01-15.53 0l-2.277-.204a3.046 3.046 0 01-2.742-2.593 51.012 51.012 0 010-14.759A3.046 3.046 0 015.529 2.8l2.276-.204z" fill="#171616"/><path d="M18.515 12.814a.05.05 0 000-.081l-4.365-3.15a.05.05 0 00-.08.04v6.3a.05.05 0 00.08.04l4.365-3.149z" fill="#171616"/></svg>