<svg width="13" height="22" viewBox="0 0 13 22" fill="none" xmlns="http://www.w3.org/2000/svg">
<path fill-rule="evenodd" clip-rule="evenodd" d="M0.0105969 10.5205H3.60929V19.8477C3.60304 20.0024 3.6298 20.1567 3.68788 20.3009C3.74595 20.4451 3.83408 20.5761 3.94674 20.6856C4.0594 20.7951 4.19415 20.8808 4.34252 20.9372C4.49088 20.9937 4.64965 21.0197 4.80885 21.0136H7.20798C7.18999 21.0136 7.20798 10.5205 7.20798 10.5205H10.8067C10.7215 10.5205 12.0674 7.02279 12.0062 7.02279H7.20798V4.69098C7.18127 4.53201 7.19385 4.36916 7.24468 4.21584C7.29552 4.06253 7.38315 3.92313 7.50034 3.80923C7.61753 3.69533 7.76092 3.61014 7.91866 3.56073C8.0764 3.51133 8.24398 3.49912 8.40755 3.52508C8.60667 3.52508 10.8774 3.53208 10.8067 3.52508C11.007 3.52508 10.989 3.50759 12.0062 3.52508V0.750234C12.0062 -0.216298 11.007 0.0273811 10.8067 0.0273811H7.20798C7.7166 0.0273811 5.52859 0.288543 4.80885 1.19328C4.12446 1.79844 3.69676 2.62984 3.60929 3.52508V7.02279H0.0105969C-0.0169931 6.9948 0.0189938 10.5205 0.0105969 10.5205Z" fill="#171616"/>
</svg>
