<svg width="28" height="28" viewBox="0 0 28 28" fill="none" xmlns="http://www.w3.org/2000/svg">
<path fill-rule="evenodd" clip-rule="evenodd" d="M19.6499 0H7.36871C5.45103 0.112263 3.6413 0.924682 2.28297 2.28301C0.924647 3.64133 0.112263 5.45103 0 7.36871V19.6499C0.112263 21.5676 0.924647 23.3773 2.28297 24.7356C3.6413 26.0939 5.45103 26.9063 7.36871 27.0186H19.6499C21.5677 26.9066 23.3775 26.0943 24.7359 24.7359C26.0943 23.3775 26.9066 21.5677 27.0186 19.6499V7.36871C26.9066 5.45094 26.0943 3.64109 24.7359 2.28271C23.3775 0.924329 21.5677 0.112001 19.6499 0ZM24.5624 19.6499C24.5026 20.9335 23.9658 22.1486 23.0572 23.0572C22.1485 23.9658 20.9335 24.5026 19.6499 24.5624H7.36871C6.08511 24.5026 4.87005 23.9658 3.96142 23.0572C3.05279 22.1486 2.51603 20.9335 2.45624 19.6499V7.36871C2.51603 6.08511 3.05279 4.87003 3.96142 3.9614C4.87005 3.05277 6.08511 2.51603 7.36871 2.45624H19.6499C20.9335 2.51603 22.1485 3.05277 23.0572 3.9614C23.9658 4.87003 24.5026 6.08511 24.5624 7.36871V19.6499ZM13.5093 6.14059C12.0519 6.14059 10.6272 6.57274 9.41546 7.38242C8.20369 8.19211 7.25922 9.34298 6.7015 10.6894C6.14378 12.0359 5.99785 13.5175 6.28218 14.9468C6.5665 16.3762 7.2683 17.6892 8.29883 18.7197C9.32936 19.7503 10.6423 20.4521 12.0717 20.7364C13.5011 21.0207 14.9827 20.8748 16.3292 20.3171C17.6756 19.7594 18.8265 18.8149 19.6362 17.6031C20.4458 16.3914 20.878 14.9667 20.878 13.5093C20.878 11.555 20.1017 9.68077 18.7198 8.29887C17.3379 6.91696 15.4636 6.14059 13.5093 6.14059ZM13.6088 18.4107C12.9554 18.4254 12.3057 18.3092 11.6978 18.0693C11.0898 17.8294 10.536 17.4705 10.0687 17.0135C9.60146 16.5566 9.23019 16.0109 8.97672 15.4085C8.72324 14.8061 8.59267 14.1592 8.59267 13.5056C8.59267 12.8521 8.72324 12.2051 8.97672 11.6027C9.23019 11.0003 9.60146 10.4546 10.0687 9.99772C10.536 9.54079 11.0898 9.18179 11.6978 8.94186C12.3057 8.70192 12.9554 8.58588 13.6088 8.6005C14.91 8.60066 16.1579 9.11774 17.0779 10.038C17.9979 10.9582 18.5147 12.2062 18.5145 13.5074C18.5143 14.8087 17.9973 16.0566 17.077 16.9766C16.1568 17.8966 14.9088 18.4133 13.6075 18.4131L13.6088 18.4107ZM20.2787 4.90145C19.8527 4.9025 19.4403 5.05107 19.1116 5.32197C18.7829 5.59287 18.5582 5.96929 18.4758 6.3872C18.3934 6.80511 18.4584 7.23872 18.6597 7.61412C18.8609 7.98952 19.1861 8.28351 19.5798 8.44616C19.9735 8.6088 20.4113 8.62999 20.8189 8.50613C21.2264 8.38226 21.5785 8.12101 21.8151 7.76681C22.0517 7.41261 22.1582 6.98742 22.1165 6.5635C22.0749 6.13959 21.8876 5.74321 21.5866 5.44183C21.2367 5.10032 20.7664 4.91015 20.2775 4.91247L20.2787 4.90145Z" fill="#171616"/>
</svg>
