<svg width="3944" height="677" viewBox="0 0 3944 677" fill="none" xmlns="http://www.w3.org/2000/svg">
<path d="M0.500005 76.8V49.8H166.1L425.3 600.6L395.6 669H278.6L0.500005 76.8ZM509 408.9H505.4L445.1 554.7L367.7 389.1L509 49.8H680V669H509V408.9ZM0.500005 165.9L166.1 518.7V669H0.500005V165.9Z" fill="#2D4872"/>
<path d="M1024.49 384.6C1024.49 369 1023.89 357.9 1022.69 351.3C1021.49 344.7 1017.89 339.9 1011.89 336.9C1006.49 333.9 996.289 331.8 981.289 330.6C972.289 330 952.789 329.7 922.789 329.7C893.989 329.7 867.289 330.9 842.689 333.3L794.989 336V219C851.389 208.2 912.289 202.8 977.689 202.8C1028.09 202.8 1067.39 206.4 1095.59 213.6C1124.39 220.8 1145.99 232.2 1160.39 247.8C1172.99 262.2 1181.09 280.5 1184.69 302.7C1188.89 324.9 1190.99 355.8 1190.99 395.4V669H1024.49V384.6ZM891.289 675.3C849.889 675.3 819.289 663.9 799.489 641.1C779.689 617.7 769.789 582.6 769.789 535.8C769.789 507 771.889 483.9 776.089 466.5C780.289 448.5 787.489 434.4 797.689 424.2C807.889 413.4 821.989 405.9 839.989 401.7C857.989 396.9 881.689 394.5 911.089 394.5L986.689 396.3V476.4H977.689C963.889 476.4 954.889 476.7 950.689 477.3C938.689 477.9 932.389 483.6 931.789 494.4C931.189 498 930.889 505.5 930.889 516.9C930.889 525.9 931.189 532.8 931.789 537.6C932.989 542.4 934.789 546.3 937.189 549.3C940.189 553.5 944.689 555.9 950.689 556.5C959.089 557.7 968.089 558.3 977.689 558.3H986.689V650.1C973.489 660.3 959.389 666.9 944.389 669.9C929.989 673.5 912.289 675.3 891.289 675.3ZM1251.84 210H1433.64L1743.24 669H1561.44L1251.84 210ZM1528.14 282L1565.94 210H1736.94L1613.64 408.9L1528.14 282ZM1375.14 461.1L1460.64 588L1417.44 669H1246.44L1375.14 461.1ZM2585.59 236.1C2598.19 224.1 2612.89 215.7 2629.69 210.9C2647.09 205.5 2668.39 202.8 2693.59 202.8V353.1C2666.59 353.1 2644.39 354.9 2626.99 358.5C2610.19 362.1 2596.39 368.4 2585.59 377.4V236.1ZM2381.29 210H2547.79V669H2381.29V210ZM3015.72 440.4C3015.72 409.8 3015.42 389.4 3014.82 379.2C3014.22 364.8 3012.42 354 3009.42 346.8C3006.42 339 3001.62 334.2 2995.02 332.4C2987.82 330.6 2977.92 329.7 2965.32 329.7H2952.72V202.8H2965.32C3017.52 202.8 3058.32 207 3087.72 215.4C3117.12 223.2 3139.02 236.4 3153.42 255C3166.62 271.8 3175.02 294.3 3178.62 322.5C3182.82 350.1 3184.92 389.4 3184.92 440.4C3184.92 487.8 3183.42 524.7 3180.42 551.1C3178.02 576.9 3171.72 598.2 3161.52 615C3150.12 633.6 3133.02 647.7 3110.22 657.3C3087.42 666.3 3055.92 672 3015.72 674.4V440.4ZM2965.32 676.2C2913.12 676.2 2872.32 672.3 2842.92 664.5C2813.52 656.7 2791.62 643.5 2777.22 624.9C2764.02 608.1 2755.32 585.9 2751.12 558.3C2747.52 530.7 2745.72 491.4 2745.72 440.4C2745.72 393.6 2747.22 357 2750.22 330.6C2753.22 304.2 2759.82 282.3 2770.02 264.9C2780.82 245.7 2797.62 231.6 2820.42 222.6C2843.22 213 2874.72 207 2914.92 204.6V440.4C2914.92 471 2915.22 491.1 2915.82 500.7C2916.42 515.1 2918.22 525.9 2921.22 533.1C2924.22 540.3 2929.32 544.8 2936.52 546.6C2942.52 548.4 2952.12 549.3 2965.32 549.3H2977.92V676.2H2965.32ZM3836.76 138.9C3834.96 146.1 3834.06 156.3 3834.06 169.5V210H3943.86V336.9H3239.16V210H3323.76V200.1C3323.76 149.1 3327.36 110.4 3334.56 84C3341.76 57.6 3354.96 38.4 3374.16 26.4C3392.16 15 3417.06 7.79997 3448.86 4.79997C3480.66 1.79997 3531.06 0.299973 3600.06 0.299973V115.5C3568.86 115.5 3548.46 115.8 3538.86 116.4C3524.46 117 3513.36 119.1 3505.56 122.7C3498.36 126.3 3494.16 131.7 3492.96 138.9C3491.16 146.1 3490.26 156.3 3490.26 169.5V210H3667.56V200.1C3667.56 149.1 3671.16 110.4 3678.36 84C3685.56 57.6 3698.76 38.4 3717.96 26.4C3735.96 15 3760.86 7.79997 3792.66 4.79997C3824.46 1.79997 3874.86 0.299973 3943.86 0.299973V115.5C3912.66 115.5 3892.26 115.8 3882.66 116.4C3868.26 117 3857.16 119.1 3849.36 122.7C3842.16 126.3 3837.96 131.7 3836.76 138.9ZM3323.76 372.9H3490.26V669H3323.76V372.9ZM3667.56 372.9H3834.06V669H3667.56V372.9Z" fill="black"/>
<path d="M1808.41 49.8H1988.41V669H1808.41V49.8ZM2026.21 338.7H2047.81C2067.01 338.7 2081.11 338.1 2090.11 336.9C2099.71 335.1 2107.21 331.5 2112.61 326.1C2118.01 321.3 2121.31 314.4 2122.51 305.4C2124.31 295.8 2125.21 281.7 2125.21 263.1C2125.21 244.5 2124.31 230.7 2122.51 221.7C2121.31 212.1 2118.01 204.6 2112.61 199.2C2107.21 194.4 2099.71 191.4 2090.11 190.2C2080.51 188.4 2066.41 187.5 2047.81 187.5H2026.21V49.8H2100.91C2145.31 49.8 2181.31 54.3 2208.91 63.3C2237.11 71.7 2258.41 84.9 2272.81 102.9C2286.61 119.7 2295.91 141 2300.71 166.8C2305.51 192 2307.91 224.1 2307.91 263.1C2307.91 300.3 2305.51 331.2 2300.71 355.8C2296.51 380.4 2287.81 401.1 2274.61 417.9C2259.61 437.1 2238.01 451.8 2209.81 462C2182.21 471.6 2145.91 476.4 2100.91 476.4H2026.21V338.7Z" fill="#6CAC3D"/>
</svg>
