<svg width="23" height="23" viewBox="0 0 23 23" fill="none" xmlns="http://www.w3.org/2000/svg">
<path d="M11.236 1.38035C10.6088 1.38394 9.97994 1.42168 9.34564 1.49894C8.13275 1.64808 6.93064 1.89605 5.77705 2.42613C3.94244 3.26887 2.6415 4.69918 2.26415 6.77816C2.10423 7.65504 1.97486 8.54449 1.90119 9.43933C1.75923 11.1769 1.84728 12.9199 2.33962 14.6323C2.72775 15.9818 3.4429 17.1946 4.69533 17.9817C5.2254 18.3141 5.92439 18.4758 6.28916 18.6447C6.39158 18.6932 6.41673 18.722 6.42212 18.7292C6.42751 18.7346 6.44189 18.7471 6.44009 18.855C6.42751 19.9546 6.44009 22.0821 6.44009 22.0821L6.44189 22.5403H7.26306L7.39603 22.411C7.39603 22.411 9.4822 20.4039 10.2369 19.5773C10.3735 19.43 10.4435 19.3473 10.4579 19.3383C10.4705 19.3293 10.4489 19.3239 10.5891 19.3203C11.5792 19.3006 12.5674 19.2628 13.5557 19.2089C14.8585 19.1371 16.1863 19.0131 17.4639 18.4794C18.5762 18.014 19.5052 17.2539 20.0676 16.1147C20.6426 14.9468 20.9499 13.7087 21.0649 12.4275C21.2553 10.2946 21.1888 8.15816 20.5995 6.05222C20.2527 4.81777 19.5555 3.77379 18.4863 3.03707C17.207 2.1566 15.7641 1.82598 14.3517 1.61574C13.527 1.49355 12.6968 1.41269 11.8631 1.38754C11.6546 1.38215 11.4462 1.37855 11.236 1.38035ZM11.8379 2.30754C12.6303 2.3291 13.4228 2.40637 14.217 2.52496C15.579 2.72801 16.8638 3.03707 17.9653 3.79535C18.8583 4.40988 19.4153 5.24004 19.7136 6.2984C20.2635 8.26777 20.3335 10.2857 20.1485 12.3467C20.0424 13.5344 19.7603 14.6539 19.241 15.7086C18.7828 16.6394 18.0677 17.2306 17.1081 17.6313C15.9941 18.0967 14.783 18.2207 13.5072 18.2907C12.5297 18.3446 11.5504 18.3806 10.5711 18.4003C10.3249 18.4057 10.0842 18.4704 9.91345 18.5962C9.74275 18.722 9.66548 18.8388 9.55947 18.9538C9.02041 19.5432 7.94587 20.58 7.36009 21.1478C7.3565 20.4614 7.35111 19.6312 7.36009 18.8657C7.36369 18.6303 7.30978 18.3896 7.17501 18.1991C7.04025 18.0086 6.85517 17.8936 6.67728 17.811C6.15798 17.5702 5.47876 17.3869 5.18408 17.2018C4.15447 16.555 3.57048 15.5846 3.22369 14.3771C2.76908 12.7977 2.68283 11.1715 2.81759 9.5166C2.88947 8.65769 3.01345 7.79699 3.16978 6.94347C3.49681 5.1448 4.52462 4.01277 6.15978 3.26168C7.19298 2.7873 8.29626 2.55371 9.45884 2.41176C10.2513 2.31473 11.0437 2.28418 11.8379 2.30754ZM12.032 4.60035C11.6528 4.60035 11.2845 4.64347 10.9269 4.72254C10.6807 4.78004 10.5244 5.02621 10.5801 5.27418C10.6358 5.52215 10.8838 5.67668 11.1317 5.62097C11.421 5.55449 11.7229 5.52035 12.032 5.52035C14.2781 5.52035 16.0893 7.3316 16.0893 9.5759C16.0893 9.88676 16.0552 10.1886 15.9887 10.4797C15.933 10.7259 16.0875 10.9739 16.3355 11.0296C16.5835 11.0853 16.8296 10.9289 16.8853 10.681C16.9662 10.3252 17.0093 9.95683 17.0093 9.5759C17.0093 6.83387 14.7758 4.60035 12.032 4.60035ZM7.44275 5.52215C7.36728 5.51855 7.29001 5.52394 7.20916 5.54191C6.37361 5.72699 5.54345 6.33254 5.52009 7.41426C5.54345 7.56519 5.54166 7.72691 5.59736 7.86347C5.87048 8.53191 6.10767 9.22191 6.44908 9.85441C8.11119 12.9271 10.625 15.0635 13.8288 16.4202C14.2116 16.5819 14.6069 16.6161 14.9932 16.4543C15.5251 16.2333 15.9761 15.8919 16.2762 15.4014C16.6877 14.7275 16.6931 14.2603 16.0156 13.7626C15.5718 13.4356 15.1352 13.0996 14.686 12.7797C14.0013 12.2946 13.261 12.2101 12.7507 13.0618C12.7238 13.105 12.6842 13.1409 12.6501 13.1768C12.3878 13.4553 12.0661 13.5236 11.7247 13.3835C10.4292 12.8498 9.4283 11.9891 8.82455 10.7079C8.46876 9.95504 8.5658 9.57769 9.23064 9.07636C9.29712 9.02785 9.36001 8.97574 9.42111 8.92004C9.7122 8.6541 9.78947 8.33785 9.61697 7.98027C9.22705 7.16449 8.70775 6.43676 8.05009 5.80965C7.8722 5.64074 7.66916 5.53472 7.44275 5.52215ZM12.0248 5.98035C11.8217 5.98035 11.6205 5.99652 11.4228 6.03066C11.2557 6.05222 11.1138 6.16363 11.0527 6.31996C10.9916 6.47808 11.0221 6.65597 11.1299 6.78535C11.2395 6.91293 11.412 6.97222 11.5774 6.93629C11.7211 6.91293 11.872 6.90035 12.0248 6.90035C13.5198 6.90035 14.7201 8.10066 14.7201 9.59566C14.7201 9.7484 14.7075 9.89933 14.6842 10.0431C14.6482 10.2084 14.7075 10.3809 14.8351 10.4905C14.9645 10.5983 15.1424 10.6289 15.3005 10.5678C15.4568 10.5067 15.5682 10.3647 15.5898 10.1976C15.6239 9.99996 15.6401 9.79871 15.6401 9.59566C15.6401 7.60472 14.0157 5.98035 12.0248 5.98035ZM11.9601 7.36035C11.7948 7.35855 11.6403 7.4448 11.5558 7.58855C11.4731 7.7323 11.4731 7.9084 11.5558 8.05215C11.6403 8.1959 11.7948 8.28215 11.9601 8.28035C12.7274 8.28035 13.3401 8.89308 13.3401 9.66035C13.3383 9.82566 13.4245 9.98019 13.5683 10.0646C13.712 10.1473 13.8881 10.1473 14.0319 10.0646C14.1756 9.98019 14.2619 9.82566 14.2601 9.66035C14.2601 8.39535 13.2251 7.36035 11.9601 7.36035Z" fill="#5C4CBB"/>
</svg>
