<svg width="21" height="21" viewBox="0 0 21 21" fill="none" xmlns="http://www.w3.org/2000/svg">
<path d="M10.5 21C16.2899 21 21 16.2899 21 10.5C21 4.71012 16.2899 0 10.5 0C4.71012 0 0 4.71012 0 10.5C0 16.2899 4.71012 21 10.5 21ZM10.5 1.3125C15.5662 1.3125 19.6875 5.43375 19.6875 10.5C19.6875 15.5662 15.5662 19.6875 10.5 19.6875C5.43375 19.6875 1.3125 15.5662 1.3125 10.5C1.3125 5.43375 5.43375 1.3125 10.5 1.3125Z" fill="#2B6BA0"/>
<path d="M6.90918 12.3866L8.28118 11.7907L7.89618 12.1766C7.77281 12.3 7.70368 12.4671 7.70368 12.6404V15.2085C7.70368 15.7965 8.41418 16.0817 8.82368 15.6722L10.2009 14.295L13.2022 15.7956C13.5907 15.9899 14.0606 15.7597 14.1411 15.3257L15.8534 5.90986C15.9436 5.40323 15.4448 4.99373 14.9679 5.18098L3.84143 9.53586C3.34268 9.73011 3.27618 10.4126 3.72768 10.7005L6.29493 12.3385C6.47868 12.4557 6.71056 12.4741 6.90918 12.3866ZM14.3519 6.83298L13.0071 14.2311L10.3646 12.9107C10.1091 12.783 9.80456 12.8364 9.60768 13.0341L9.01618 13.6256V12.9142L11.6473 10.2831C12.1574 9.77298 11.5834 8.93123 10.9219 9.21736L6.70706 11.0461L5.52231 10.2901L14.3519 6.83298Z" fill="#2B6BA0"/>
</svg>
