<svg width="28" height="28" viewBox="0 0 28 28" fill="none" xmlns="http://www.w3.org/2000/svg">
<path d="M13.5093 27.0186C20.9585 27.0186 27.0186 20.9585 27.0186 13.5093C27.0186 6.06004 20.9585 0 13.5093 0C6.06004 0 0 6.06004 0 13.5093C0 20.9585 6.06004 27.0186 13.5093 27.0186ZM13.5093 1.68866C20.0275 1.68866 25.3299 6.99106 25.3299 13.5093C25.3299 20.0275 20.0275 25.3299 13.5093 25.3299C6.99106 25.3299 1.68866 20.0275 1.68866 13.5093C1.68866 6.99106 6.99106 1.68866 13.5093 1.68866Z" fill="#171616"/>
<path d="M8.88914 15.9347L10.6544 15.1681L10.159 15.6645C10.0003 15.8233 9.91135 16.0383 9.91135 16.2612V19.5653C9.91135 20.3219 10.8255 20.6889 11.3523 20.162L13.1243 18.39L16.9857 20.3207C17.4856 20.5707 18.0901 20.2746 18.1937 19.7162L20.3968 7.60172C20.5128 6.9499 19.8711 6.42304 19.2575 6.66395L4.94218 12.2669C4.30049 12.5169 4.21493 13.395 4.79583 13.7653L8.09885 15.8728C8.33526 16.0236 8.63359 16.0473 8.88914 15.9347ZM18.465 8.78942L16.7347 18.3078L13.3348 16.609C13.0061 16.4447 12.6143 16.5134 12.361 16.7678L11.6 17.5288V16.6136L14.9852 13.2283C15.6415 12.572 14.903 11.489 14.0519 11.8572L8.62909 14.21L7.10479 13.2374L18.465 8.78942Z" fill="#171616"/>
</svg>
