<svg width="34" height="20" viewBox="0 0 34 20" fill="none" xmlns="http://www.w3.org/2000/svg">
<path d="M28.1241 11.2122C27.5761 10.5279 27.7329 10.2234 28.1241 9.61166C28.1311 9.60468 32.6544 3.42316 33.1204 1.32681L33.1233 1.32541C33.3549 0.561448 33.1233 0 32.0034 0H28.2978C27.3544 0 26.9194 0.48184 26.6864 1.02094C26.6864 1.02094 24.7997 5.48739 22.1307 8.38262C21.2692 9.2192 20.871 9.48736 20.4007 9.48736C20.1691 9.48736 19.809 9.2192 19.809 8.45524V1.32541C19.809 0.409215 19.5449 0 18.764 0H12.9372C12.3455 0 11.9939 0.427371 11.9939 0.825413C11.9939 1.69412 13.3284 1.89384 13.4668 4.33796V9.64099C13.4668 10.803 13.2535 11.0167 12.7805 11.0167C11.5208 11.0167 8.46334 6.53207 6.65148 1.39943C6.28572 0.403628 5.92843 0.00139654 4.97802 0.00139654H1.27098C0.213243 0.00139654 0 0.483236 0 1.02234C0 1.97485 1.25969 6.71084 5.85782 12.9678C8.92231 17.2387 13.238 19.5529 17.1639 19.5529C19.5237 19.5529 19.8118 19.039 19.8118 18.1549C19.8118 14.0739 19.5986 13.6884 20.7806 13.6884C21.3285 13.6884 22.2719 13.9566 24.4749 16.0166C26.9929 18.4594 27.4067 19.5529 28.816 19.5529H32.5217C33.578 19.5529 34.1132 19.039 33.8054 18.025C33.1007 15.8923 28.3387 11.5055 28.1241 11.2122Z" fill="#171616"/>
</svg>
