<svg width="32" height="26" viewBox="0 0 32 26" fill="none" xmlns="http://www.w3.org/2000/svg">
<path fill-rule="evenodd" clip-rule="evenodd" d="M23.5366 0.355412C18.2366 -0.118471 12.9049 -0.118471 7.60488 0.355412L5.32887 0.558915C2.88744 0.777207 0.914836 2.64234 0.560249 5.06772C-0.18675 10.1772 -0.18675 15.3681 0.560249 20.4776C0.914836 22.903 2.88744 24.7681 5.32887 24.9864L7.60488 25.1899C12.9049 25.6638 18.2366 25.6638 23.5366 25.1899L25.8126 24.9864C28.2541 24.7681 30.2267 22.903 30.5813 20.4776C31.3283 15.3681 31.3283 10.1772 30.5813 5.06772C30.2267 2.64234 28.2541 0.777207 25.8126 0.558915L23.5366 0.355412ZM7.80526 2.59647C12.9719 2.13451 18.1696 2.13451 23.3363 2.59647L25.6123 2.79997C27.0164 2.92552 28.151 3.99825 28.3549 5.3932C29.0704 10.2868 29.0704 15.2585 28.3549 20.1521C28.151 21.5471 27.0164 22.6198 25.6123 22.7453L23.3363 22.9488C18.1696 23.4108 12.972 23.4108 7.80526 22.9488L5.52924 22.7453C4.12506 22.6198 2.99052 21.5471 2.78658 20.1521C2.07114 15.2585 2.07114 10.2868 2.78658 5.3932C2.99052 3.99825 4.12506 2.92552 5.52924 2.79997L7.80526 2.59647Z" fill="#171616"/>
<path d="M18.5145 12.814C18.5422 12.794 18.5422 12.7529 18.5145 12.7329L14.1499 9.58304C14.1169 9.55918 14.0707 9.58281 14.0707 9.62359V15.9233C14.0707 15.9641 14.1169 15.9877 14.1499 15.9638L18.5145 12.814Z" fill="#171616"/>
</svg>
